<svg xmlns="http://www.w3.org/2000/svg" viewBox="0 0 36 36" role="img" aria-hidden="true" class="udemy-logo" width="36"
    height="36">
    <path
        d="M8.6 25.5c-1.85 0-3.61-.6-5.2-1.64-.57-.37-.73-1.14-.36-1.71.37-.57 1.14-.73 1.71-.36a10.4 10.4 0 0 0 13.1-1.64l1.4-1.5c.46-.5 1.25-.52 1.75-.05s.52 1.25.05 1.75l-1.4 1.5a12.9 12.9 0 0 1-10.35 4.65z"
        fill="#A435F0" />
    <path d="M10.5 18.5a5 5 0 1 1-10 0 5 5 0 0 1 10 0z" fill="#E9E9ED" />
    <path
        d="M32.07 7.48c-1.9-1.4-3.62-2.83-5.23-4.36-.56-.5-1.45-.45-1.95.1-.5.56-.45 1.45.1 1.95a22.5 22.5 0 0 0 4.25 3.55c1.77 1.26 3.56 2.65 5.18 4.15.67.64.72 1.7.08 2.37-.64.67-1.7.72-2.37.08-1.5-1.4-3.05-2.7-4.73-3.87l-2.3-1.75c-.57-.43-1.36-.35-1.8.22-.43.57-.35 1.36.22 1.8l2.3 1.75c1.62 1.22 3.14 2.56 4.6 4 .57.54 1.5.5 2.03-.08.54-.57.5-1.5-.08-2.03-1.45-1.45-2.97-2.77-4.55-3.96-.14-.1-.27-.21-.4-.32l-4.2-3.6a22.5 22.5 0 0 0-4.2-3.6c-.57-.5-1.45-.45-1.95.1-.5.56-.45 1.45.1 1.95 1.9 1.4 3.62 2.83 5.23 4.36 1.62 1.53 3.2 3.15 4.7 4.85l3.03 3.53c.57.67 1.6.74 2.26.17s.74-1.6.17-2.26l-3.02-3.52c-1.5-1.7-3.08-3.32-4.7-4.85z"
        fill="#A435F0" />
</svg>